<svg xmlns="http://www.w3.org/2000/svg" width="424" height="424" viewBox="0 0 424 424">
  <g id="favicon" transform="translate(-289 -562)">
    <rect id="Rectangle_3" data-name="Rectangle 3" width="424" height="424" rx="20" transform="translate(289 562)" fill="#c53719"/>
    <path id="favicon-2" data-name="favicon" d="M173.881-109.136a80.808,80.808,0,0,0,12.6-44q0-21.9-14.539-44,33.342,14.151,33.342,44.585Q205.285-121.736,173.881-109.136ZM55.828-204.315V0H47.493Q42.646,0,32.179,1.163A164.174,164.174,0,0,1,11.243,2.326V-1.163Q23.649-2.52,31.791-13.375t8.142-41.871v-99.638q0-42.259-28.689-48.268v-3.489Q23.649-205.285,55.828-204.315Zm30.24,53.308v42.065a100.514,100.514,0,0,0,24.813,2.908q43.616,0,43.616-45.36,0-42.453-43.228-42.453-13.957,0-21.711,5.622Q86.068-180.472,86.068-151.007ZM75.6,0H69.979V-204.315q11.631,0,24.813-.969,15.12-1.357,24.619-1.357,26.557,0,39.545,16.283,12.988,16.089,12.988,39.739,0,40.126-33.923,51.37,16.865,2.326,28.3,10.08,12.212,8.335,37.025,33.342,37.8,38.382,61.644,38.382a18.04,18.04,0,0,0,9.886-3.3l.775,3.489Q267.9-7.172,254.134-7.172q-14.732,0-30.822-11.049-15.12-10.468-45.167-41.1Q142.09-96.536,107.973-96.536q21.129,6.591,57.185,44.391,25.394,26.363,40.708,38.382Q221.374-1.745,235.525-1.745V0a38.855,38.855,0,0,1-12.988,2.326q-18.8,0-32.566-9.5a184.122,184.122,0,0,1-18.706-15.992q-11.34-10.759-27.236-27.817-23.262-24.812-34.5-33.729Q97.505-93.822,86.068-97.505v45.942q0,46.33,27.914,50.4V2.326Q90.721,0,75.6,0Z" transform="translate(358 876)" fill="#fff"/>
  </g>
</svg>
