<svg xmlns="http://www.w3.org/2000/svg" xmlns:xlink="http://www.w3.org/1999/xlink" width="559.852" height="566.852" viewBox="0 0 559.852 566.852">
  <defs>
    <clipPath id="clip-path">
      <rect x="112" y="103" width="559.852" height="566.852" fill="none"/>
    </clipPath>
  </defs>
  <g id="all" transform="translate(-642.097 -208.369)">
    <g id="Scroll_Group_2" data-name="Scroll Group 2" transform="translate(530.097 105.369)" clip-path="url(#clip-path)" style="isolation: isolate">
      <g id="Path_1" data-name="Path 1" transform="translate(390.903 110.445) rotate(45)" fill="#fff">
        <path d="M 187.3901824951172 470.94580078125 C 173.1921844482422 470.94580078125 154.6133270263672 466.716796875 132.1697540283203 458.3764343261719 C 114.0895385742188 451.6575622558594 93.51647186279297 442.2812194824219 71.02182769775391 430.5079345703125 C 50.9828987121582 420.019775390625 33.10611343383789 409.5358581542969 21.63796997070313 402.5877075195313 C 10.88239860534668 396.0712890625 3.615665912628174 391.3723449707031 1.811596274375916 390.1973266601563 C 0.679008424282074 388.438720703125 -3.762029409408569 381.4830932617188 -9.928174018859863 371.0686340332031 C -16.51995849609375 359.9354248046875 -26.48767280578613 342.4594421386719 -36.54010391235352 322.4281311035156 C -47.82345962524414 299.9440002441406 -56.91167449951172 278.8897705078125 -63.55217361450195 259.8502807617188 C -71.81253051757813 236.1662902832031 -76.27731323242188 215.5877075195313 -76.82253265380859 198.6862182617188 C -77.10603332519531 189.8980712890625 -76.20796203613281 179.9404296875 -74.15338897705078 169.0897827148438 C -72.27503204345703 159.1701354980469 -69.38967132568359 148.2904968261719 -65.57738494873047 136.7530670166016 C -59.13645935058594 117.2602157592773 -49.97060394287109 95.57064056396484 -38.3344612121582 72.28700256347656 C -27.96881675720215 51.5456428527832 -17.52524566650391 33.36185836791992 -10.58938789367676 21.75985717773438 C -4.139852523803711 10.97128868103027 0.5424413084983826 3.738362073898315 1.768124341964722 1.862511277198792 C 3.739025831222534 0.714793860912323 11.39308452606201 -3.712239027023315 22.61004066467285 -9.826143264770508 C 34.63782501220703 -16.38207244873047 53.33925628662109 -26.27385711669922 74.12868499755859 -36.16843032836914 C 97.46417999267578 -47.27471542358398 118.6181106567383 -56.12007141113281 137.0028991699219 -62.45864105224609 C 159.8292541503906 -70.32864379882813 178.3601837158203 -74.31900024414063 192.0809020996094 -74.31900024414063 C 193.4249725341797 -74.31900024414063 194.7407531738281 -74.28021240234375 195.9916839599609 -74.20357513427734 C 209.3238983154297 -73.38735961914063 227.830322265625 -68.88528442382813 250.9969024658203 -60.82257080078125 C 269.6345520019531 -54.33599853515625 291.2746887207031 -45.55292892456055 315.3161926269531 -34.71721267700195 C 353.3370056152344 -17.58096694946289 385.5038452148438 -0.6196797490119934 390.2261962890625 1.887848734855652 C 391.4853820800781 3.94257378578186 396.0321960449219 11.4252462387085 402.2688293457031 22.41499900817871 C 409.0428161621094 34.35178375244141 419.2527465820313 52.98571395874023 429.4240417480469 73.97028350830078 C 440.8400268554688 97.52271270751953 449.881103515625 119.1735000610352 456.2961730957031 138.3211364746094 C 464.2656860351563 162.1085662841797 468.1688232421875 182.0224304199219 467.8971252441406 197.5094299316406 C 467.6249694824219 213.0236358642578 463.3772583007813 232.8041381835938 455.27197265625 256.3013610839844 C 448.7518310546875 275.203369140625 439.7428283691406 296.5073547363281 428.4953308105469 319.6214294433594 C 418.4773864746094 340.2087707519531 408.5048217773438 358.4427185058594 401.9028930664063 370.1138610839844 C 395.8463134765625 380.8208618164063 391.4511108398438 388.0972900390625 390.2200012207031 390.11865234375 C 385.5058288574219 392.6474914550781 353.3171081542969 409.8069152832031 315.1420288085938 427.522705078125 C 291.0038146972656 438.7244262695313 269.2334594726563 447.9522705078125 250.4357604980469 454.9497985839844 C 227.0491180419922 463.6556396484375 208.2743988037109 468.8998718261719 194.6331176757813 470.5367736816406 C 192.371826171875 470.8081359863281 189.9349670410156 470.94580078125 187.3901824951172 470.94580078125 Z" stroke="none"/>
        <path d="M 192.0809631347656 -71.81903076171875 C 178.6416625976563 -71.81903076171875 160.3908081054688 -67.87655639648438 137.8352813720703 -60.10125732421875 C 119.5435180664063 -53.79571533203125 98.482421875 -44.98947143554688 75.237060546875 -33.92724609375 C 54.50006103515625 -24.0587158203125 35.8411865234375 -14.19024658203125 23.8399658203125 -7.649322509765625 C 13.43710327148438 -1.979583740234375 6.103912353515625 2.2369384765625 3.537994384765625 3.72540283203125 C 1.955474853515625 6.160125732421875 -2.48248291015625 13.07098388671875 -8.443634033203125 23.0426025390625 C -15.357421875 34.607666015625 -25.76742553710938 52.73291015625 -36.09817504882813 73.40460205078125 C -47.68072509765625 96.58096313476563 -56.80032348632813 118.158447265625 -63.20364379882813 137.5374450683594 C -71.11709594726563 161.4866638183594 -74.85848999023438 182.0329742431641 -74.32388305664063 198.6055908203125 C -73.78701782226563 215.2474365234375 -69.37179565429688 235.5672149658203 -61.2008056640625 259.0006713867188 C -54.5997314453125 277.931884765625 -45.5589599609375 298.878662109375 -34.32965087890625 321.2591247558594 C -24.31179809570313 341.2252807617188 -14.37533569335938 358.6489868164063 -7.8037109375 369.7498168945313 C -2.0799560546875 379.4184875488281 2.154052734375 386.0994567871094 3.62451171875 388.39404296875 C 5.97930908203125 389.9216003417969 12.94161987304688 394.3958740234375 22.933349609375 400.4495239257813 C 34.3709716796875 407.3791198730469 52.1993408203125 417.8348388671875 72.18112182617188 428.2929077148438 C 94.58267211914063 440.017578125 115.0587463378906 449.3506774902344 133.0404968261719 456.0329895019531 C 155.20458984375 464.26953125 173.4904327392578 468.4457397460938 187.3901214599609 468.4457397460938 C 189.8358917236328 468.4457397460938 192.1725006103516 468.3141479492188 194.3352813720703 468.0545959472656 C 207.7780456542969 466.4414367675781 226.3554382324219 461.2456665039063 249.55126953125 452.6114501953125 C 268.28466796875 445.6383666992188 289.9902954101563 436.4380493164063 314.0653686523438 425.2662048339844 C 350.8457641601563 408.1985778808594 382.0671081542969 391.6442260742188 388.437744140625 388.2371520996094 C 390.0208435058594 385.6251525878906 394.1937561035156 378.6666564941406 399.7709655761719 368.8048095703125 C 406.3555908203125 357.1618347167969 416.3007507324219 338.9739685058594 426.2867431640625 318.446533203125 C 437.4806518554688 295.4360656738281 446.4425964355469 274.2385864257813 452.9235229492188 255.4429016113281 C 460.9332885742188 232.2135925292969 465.130126953125 212.7072143554688 465.3975219726563 197.4655914306641 C 465.6641235351563 182.2688293457031 461.806884765625 162.6443634033203 453.9330444335938 139.137451171875 C 447.5552062988281 120.0965881347656 438.5590515136719 98.5521240234375 427.194580078125 75.10235595703125 C 417.0546569824219 54.179443359375 406.8731079101563 35.59512329101563 400.1173400878906 23.689208984375 C 394.3757019042969 13.5704345703125 390.0688171386719 6.4302978515625 388.4501647949219 3.77587890625 C 382.0769653320313 0.403045654296875 350.9291076660156 -15.92291259765625 314.3158264160156 -32.42593383789063 C 290.33642578125 -43.23434448242188 268.760986328125 -51.99234008789063 250.1887359619141 -58.456787109375 C 227.2316589355469 -66.44741821289063 208.9457397460938 -70.90585327148438 195.8388214111328 -71.70834350585938 C 194.6393585205078 -71.78179931640625 193.3750457763672 -71.81903076171875 192.0809631347656 -71.81903076171875 M 192.0809478759766 -76.81903076171875 C 193.4718627929688 -76.81903076171875 194.8270874023438 -76.77960205078125 196.1445007324219 -76.69894409179688 C 255.6062774658203 -73.05841064453125 391.9999694824219 -3.0517578125e-05 391.9999694824219 -3.0517578125e-05 C 391.9999694824219 -3.0517578125e-05 471.6101989746094 128.3835144042969 470.396728515625 197.5532836914063 C 469.1832885742188 266.7230529785156 391.9999694824219 391.9999694824219 391.9999694824219 391.9999694824219 C 391.9999694824219 391.9999694824219 255.6062774658203 465.7379760742188 194.9309692382813 473.0189819335938 C 192.5312194824219 473.3069458007813 190.0072631835938 473.4457397460938 187.3901672363281 473.4457397460938 C 123.8367309570313 473.4457397460938 -3.0517578125e-05 391.9999694824219 -3.0517578125e-05 391.9999694824219 C -3.0517578125e-05 391.9999694824219 -76.89425659179688 274.004150390625 -79.32125854492188 198.7668304443359 C -81.74826049804688 123.5294494628906 -3.0517578125e-05 -3.0517578125e-05 -3.0517578125e-05 -3.0517578125e-05 C -3.0517578125e-05 -3.0517578125e-05 130.6932983398438 -76.81903076171875 192.0809478759766 -76.81903076171875 Z" stroke="none"/>
      </g>
    </g>
    <path id="Path_4" data-name="Path 4" d="M170.508,0,96.533-154.395h14.355q2.93,7.617,8.2,19.189,5.859,12.451,6.592,14.795A18.189,18.189,0,0,1,127-117.334L161.426-46Q179.443-8.789,199.8-.879V1.758Q179.883,0,170.508,0ZM65.918-73.682h44.238l-21.24-44.531Zm62.549,38.232L115.43-62.7H60.205L46.289-35.449l-.732,1.9q-.146.146-2.2,4.248a27.871,27.871,0,0,0-3.076,12.6q0,11.133,12.3,15.82V1.758a85.4,85.4,0,0,1-8.643-.732A133.1,133.1,0,0,0,28.418,0,144.612,144.612,0,0,0,12.891,1.025q-6.3.732-8.35.732V-.879q16.113-8.2,29.3-33.838l48.633-94.629a42.065,42.065,0,0,0-15.308-17.432,45.713,45.713,0,0,0-22.778-6.738v-2.637h5.127q6.885,0,18.9.879,12.6.879,16.406.879L158.789,0Q144.58.293,124.658,1.758V-.879q11.133-1.9,11.133-12.012Q135.791-20.361,128.467-35.449ZM284.326-5.566l.732,3.076a24.25,24.25,0,0,1-15.381,5.42q-12.012,0-17.725-9.229-5.713-9.082-5.713-30.908V-177.1q8.789-.293,12.451-.732-1.611,25.049-1.611,36.035v98.145q0,18.018.879,24.609a17.029,17.029,0,0,0,5.42,10.84q4.395,4.395,12.3,4.395A23.162,23.162,0,0,0,284.326-5.566ZM236.572-177.1V-37.354q0,19.922,2.2,26.074A43.4,43.4,0,0,0,245.8,1.172Q237.744-1.172,233.35-6.3q-4.395-4.834-6.006-13.037-1.465-7.324-1.465-26.074v-98.145q0-13.33-1.025-18.018a18.879,18.879,0,0,0-5.273-9.375,19.5,19.5,0,0,0-10.693-5.273v-2.49q4.541,0,13.916.879Q227.49-177.393,236.572-177.1ZM368.7-5.566l.732,3.076a24.25,24.25,0,0,1-15.381,5.42q-12.012,0-17.725-9.229-5.713-9.082-5.713-30.908V-177.1q8.789-.293,12.451-.732-1.611,25.049-1.611,36.035v98.145q0,18.018.879,24.609a17.029,17.029,0,0,0,5.42,10.84q4.395,4.395,12.3,4.395A23.162,23.162,0,0,0,368.7-5.566ZM320.947-177.1V-37.354q0,19.922,2.2,26.074a43.4,43.4,0,0,0,7.031,12.451Q322.119-1.172,317.725-6.3q-4.395-4.834-6.006-13.037-1.465-7.324-1.465-26.074v-98.145q0-13.33-1.025-18.018a18.879,18.879,0,0,0-5.273-9.375,19.5,19.5,0,0,0-10.693-5.273v-2.49q4.541,0,13.916.879Q311.865-177.393,320.947-177.1Z" transform="translate(732 573)"/>
  </g>
</svg>
