<svg xmlns="http://www.w3.org/2000/svg" width="241.784" height="104.154" viewBox="0 0 241.784 104.154">
  <g id="logo" transform="translate(-920 -473)">
    <path id="Path_3" data-name="Path 3" d="M86.284-54.156a40.1,40.1,0,0,0,6.252-21.835q0-10.87-7.214-21.835Q101.867-90.8,101.867-75.7,101.867-60.408,86.284-54.156ZM27.7-101.386V0H23.567q-2.4,0-7.6.577a81.467,81.467,0,0,1-10.389.577V-.577a14.338,14.338,0,0,0,10.2-6.06q4.04-5.387,4.04-20.777V-76.857q0-20.97-14.236-23.952v-1.731Q11.735-101.867,27.7-101.386ZM42.709-74.933V-54.06a49.877,49.877,0,0,0,12.313,1.443q21.643,0,21.643-22.509,0-21.066-21.451-21.066-6.926,0-10.773,2.79Q42.709-89.554,42.709-74.933ZM37.515,0h-2.79V-101.386q5.771,0,12.313-.481,7.5-.673,12.216-.673,13.178,0,19.623,8.08,6.445,7.984,6.445,19.719,0,19.912-16.833,25.491a32.631,32.631,0,0,1,14.044,5Q88.592-40.112,100.9-27.7,119.662-8.657,131.494-8.657a8.952,8.952,0,0,0,4.906-1.635l.385,1.731a12.714,12.714,0,0,1-10.677,5q-7.311,0-15.294-5.483-7.5-5.194-22.413-20.393Q70.508-47.9,53.579-47.9q10.485,3.271,28.376,22.028,12.6,13.082,20.2,19.046,7.7,5.964,14.717,5.964V0a19.28,19.28,0,0,1-6.445,1.154,27.742,27.742,0,0,1-16.16-4.713,91.365,91.365,0,0,1-9.282-7.936Q79.358-16.833,71.47-25.3,59.927-37.611,54.348-42.036a39.624,39.624,0,0,0-11.639-6.349v22.8q0,22.99,13.852,25.01V1.154Q45.018,0,37.515,0Z" transform="translate(1025 576)" fill="#c53719"/>
    <rect id="Rectangle_2" data-name="Rectangle 2" width="104" height="104" transform="translate(920 473)"/>
    <rect id="Rectangle_1" data-name="Rectangle 1" width="101" height="93" transform="translate(920 473)" fill="#fff"/>
  </g>
</svg>
