<svg xmlns="http://www.w3.org/2000/svg" xmlns:xlink="http://www.w3.org/1999/xlink" width="557.852" height="562.852" viewBox="0 0 557.852 562.852">
  <defs>
    <clipPath id="clip-path">
      <rect x="112" y="105" width="557.852" height="562.852" fill="none"/>
    </clipPath>
  </defs>
  <g id="searchIcon" transform="translate(-642.097 -210.369)">
    <g id="Scroll_Group_1" data-name="Scroll Group 1" transform="translate(530.097 105.369)" clip-path="url(#clip-path)" style="isolation: isolate">
      <path id="Path_1" data-name="Path 1" d="M0,0S136.683-80.339,196.145-76.7,392,0,392,0s79.61,128.383,78.4,197.553S392,392,392,392s-136.394,73.738-197.069,81.019S0,392,0,392-76.894,274-79.321,198.767,0,0,0,0Z" transform="translate(390.903 110.445) rotate(45)" fill="#c53719"/>
    </g>
    <g id="magnifier" transform="translate(1378 326.32)">
      <g id="Group_2" data-name="Group 2" transform="translate(-549 60)">
        <path id="Path_2" data-name="Path 2" d="M25.052,148.956c-33.4-34.031-33.4-89.4,0-123.434a84.65,84.65,0,0,1,121.154,0,86.789,86.789,0,0,1,12.887,105.338,3.726,3.726,0,0,0,.5,4.374l43.708,44.53c8.7,8.863,10.771,21.256,3.056,29.117l-1.328,1.352c-7.715,7.861-19.88,5.752-28.579-3.111l-43.616-44.436a3.605,3.605,0,0,0-4.386-.6C95.535,182.2,53.39,177.827,25.052,148.956ZM130.39,132.842a65.426,65.426,0,0,0,0-91.2,62.547,62.547,0,0,0-89.52,0,65.426,65.426,0,0,0,0,91.2A62.55,62.55,0,0,0,130.39,132.842Z" transform="translate(-0.001 0)" fill="#fff"/>
      </g>
    </g>
  </g>
</svg>
